<?xml version="1.0" encoding="utf-8"?>
<!-- Generator: Adobe Illustrator 17.0.0, SVG Export Plug-In . SVG Version: 6.00 Build 0)  -->
<!DOCTYPE svg PUBLIC "-//W3C//DTD SVG 1.1//EN" "http://www.w3.org/Graphics/SVG/1.1/DTD/svg11.dtd">
<svg version="1.1" id="Layer_1" xmlns="http://www.w3.org/2000/svg" xmlns:xlink="http://www.w3.org/1999/xlink" x="0px" y="0px"
	 width="400px" height="400px" viewBox="0 0 400 400" enable-background="new 0 0 400 400" xml:space="preserve">
<g>
	<g>
		<path fill="#786BFF" d="M382.341,35.044H17.659C7.922,35.044,0,42.966,0,52.703v294.594c0,9.737,7.922,17.659,17.659,17.659
			h364.681c9.737,0,17.659-7.922,17.659-17.659V52.703C400,42.966,392.078,35.044,382.341,35.044z M382.341,347.297l-364.68,0.012
			c0,0-0.001-0.004-0.001-0.012V52.703h364.681V347.297z"/>
	</g>
</g>
<g>
	<g>
		<path fill="#786BFF" d="M349.199,77.016H50.8c-4.876,0-8.83,3.954-8.83,8.83v195.156c0,4.876,3.954,8.829,8.83,8.829h298.398
			c4.876,0,8.83-3.954,8.83-8.83V85.845C358.029,80.97,354.075,77.016,349.199,77.016z M59.63,94.675h280.739v149.48l-55.647-55.641
			c-3.447-3.447-9.037-3.447-12.487,0l-33.923,33.923l-77.781-77.781c-3.448-3.445-9.038-3.447-12.487,0L59.63,233.062L59.63,94.675
			L59.63,94.675z M59.63,272.17v-14.137l94.658-94.648L263.072,272.17H59.63z M340.37,272.171h-52.323v-0.001l-37.247-37.247
			l27.679-27.68l59.861,59.853c0.616,0.616,1.302,1.117,2.029,1.513L340.37,272.171L340.37,272.171z"/>
	</g>
</g>
<g>
	<g>
		<path fill="#786BFF" d="M237.77,111.429c-18.406,0-33.382,14.975-33.382,33.382s14.975,33.382,33.382,33.382
			s33.382-14.975,33.382-33.382S256.176,111.429,237.77,111.429z M237.77,160.534c-8.67,0-15.723-7.052-15.723-15.723
			c0-8.67,7.053-15.722,15.723-15.722c8.669,0,15.722,7.052,15.722,15.722C253.491,153.481,246.439,160.534,237.77,160.534z"/>
	</g>
</g>
<g>
	<g>
		<path fill="#786BFF" d="M127.603,309.733H50.8c-4.876,0-8.83,3.954-8.83,8.83c0,4.877,3.954,8.83,8.83,8.83h76.803
			c4.877,0,8.83-3.954,8.83-8.83C136.433,313.687,132.48,309.733,127.603,309.733z"/>
	</g>
</g>
<g>
	<g>
		<path fill="#786BFF" d="M188.038,309.733h-20.145c-4.876,0-8.83,3.954-8.83,8.83c0,4.876,3.954,8.83,8.83,8.83h20.145
			c4.877,0,8.83-3.954,8.83-8.83C196.868,313.687,192.914,309.733,188.038,309.733z"/>
	</g>
</g>
</svg>
