<?xml version="1.0" encoding="utf-8"?>
<!-- Generator: Adobe Illustrator 17.0.0, SVG Export Plug-In . SVG Version: 6.00 Build 0)  -->
<!DOCTYPE svg PUBLIC "-//W3C//DTD SVG 1.1//EN" "http://www.w3.org/Graphics/SVG/1.1/DTD/svg11.dtd">
<svg version="1.1" id="Capa_1" xmlns="http://www.w3.org/2000/svg" xmlns:xlink="http://www.w3.org/1999/xlink" x="0px" y="0px"
	 width="512px" height="512px" viewBox="0 0 512 512" enable-background="new 0 0 512 512" xml:space="preserve">
<g>
	<g>
		<path fill="#786BFF" d="M256,0C114.846,0,0,114.838,0,256s114.846,256,256,256s256-114.838,256-256S397.154,0,256,0z M256,480.492
			C132.214,480.492,31.508,379.786,31.508,256S132.214,31.508,256,31.508S480.492,132.214,480.492,256S379.786,480.492,256,480.492z
			"/>
		<circle fill="#786BFF" cx="260.08" cy="153.923" r="26.348"/>
		<path fill="#786BFF" d="M253.141,223.248c-8.696,0-15.754,7.058-15.754,15.754v133.908c0,8.696,7.058,15.754,15.754,15.754
			c8.696,0,15.754-7.058,15.754-15.754V239.002C268.895,230.298,261.837,223.248,253.141,223.248z"/>
	</g>
</g>
</svg>
