<?xml version="1.0" encoding="utf-8"?>
<!-- Generator: Adobe Illustrator 17.0.0, SVG Export Plug-In . SVG Version: 6.00 Build 0)  -->
<!DOCTYPE svg PUBLIC "-//W3C//DTD SVG 1.1//EN" "http://www.w3.org/Graphics/SVG/1.1/DTD/svg11.dtd">
<svg version="1.1" id="Layer_1" xmlns="http://www.w3.org/2000/svg" xmlns:xlink="http://www.w3.org/1999/xlink" x="0px" y="0px"
	 width="400px" height="400px" viewBox="0 0 400 400" enable-background="new 0 0 400 400" xml:space="preserve">
<g>
	<g>
		<path fill="#786BFF" d="M305.34,106.129H191.494c-4.508,0-8.163,3.655-8.163,8.163c0,4.509,3.655,8.163,8.163,8.163h113.847
			c4.508,0,8.163-3.655,8.163-8.163C313.504,109.784,309.848,106.129,305.34,106.129z"/>
	</g>
</g>
<g>
	<g>
		<path fill="#786BFF" d="M305.34,142.049H191.494c-4.508,0-8.163,3.655-8.163,8.163c0,4.509,3.655,8.163,8.163,8.163h113.847
			c4.508,0,8.163-3.655,8.163-8.163C313.503,145.704,309.848,142.049,305.34,142.049z"/>
	</g>
</g>
<g>
	<g>
		<path fill="#786BFF" d="M305.34,177.97H191.494c-4.508,0-8.163,3.655-8.163,8.163c0,4.509,3.655,8.163,8.163,8.163h113.847
			c4.508,0,8.163-3.655,8.163-8.163C313.504,181.625,309.848,177.97,305.34,177.97z"/>
	</g>
</g>
<g>
	<g>
		<path fill="#786BFF" d="M305.4,213.891H191.552c-4.508,0-8.163,3.655-8.163,8.163s3.655,8.163,8.163,8.163H305.4
			c4.509,0,8.163-3.655,8.163-8.163C313.562,217.545,309.908,213.891,305.4,213.891z"/>
	</g>
</g>
<g>
	<g>
		<path fill="#786BFF" d="M153.446,171.58c-4.508,0-8.163,3.655-8.163,8.163v0.107c0,4.509,3.655,8.163,8.163,8.163
			s8.163-3.655,8.163-8.163v-0.107C161.609,175.234,157.954,171.58,153.446,171.58z"/>
	</g>
</g>
<g>
	<g>
		<path fill="#786BFF" d="M153.445,160.681c4.508,0,8.163-3.655,8.163-8.163v-38.196c0-4.509-3.655-8.163-8.163-8.163H45.684
			c-4.508,0-8.163,3.655-8.163,8.163v107.703c0,4.509,3.655,8.163,8.163,8.163h107.761c4.508,0,8.163-3.655,8.163-8.163v-14.129
			c0-4.509-3.655-8.163-8.163-8.163s-8.163,3.655-8.163,8.163v5.966H53.848v-91.377h91.434v30.033
			C145.282,157.027,148.938,160.681,153.445,160.681z"/>
	</g>
</g>
<g>
	<g>
		<path fill="#786BFF" d="M305.4,252.665H45.684c-4.508,0-8.163,3.655-8.163,8.163c0,4.509,3.655,8.163,8.163,8.163H305.4
			c4.509,0,8.163-3.655,8.163-8.163C313.562,256.32,309.908,252.665,305.4,252.665z"/>
	</g>
</g>
<g>
	<g>
		<path fill="#786BFF" d="M305.4,288.584H197.632c-4.508,0-8.163,3.655-8.163,8.163c0,4.509,3.655,8.163,8.163,8.163h107.767
			c4.509,0,8.163-3.655,8.163-8.163C313.562,292.239,309.908,288.584,305.4,288.584z"/>
	</g>
</g>
<g>
	<g>
		<path fill="#786BFF" d="M171.078,288.584h-0.106c-4.508,0-8.163,3.655-8.163,8.163c0,4.509,3.655,8.163,8.163,8.163h0.106
			c4.509,0,8.163-3.655,8.163-8.163C179.241,292.239,175.586,288.584,171.078,288.584z"/>
	</g>
</g>
<g>
	<g>
		<path fill="#786BFF" d="M144.893,288.585H45.684c-4.508,0-8.163,3.655-8.163,8.163c0,4.509,3.655,8.163,8.163,8.163h99.209
			c4.509,0,8.163-3.655,8.163-8.163C153.055,292.24,149.4,288.585,144.893,288.585z"/>
	</g>
</g>
<g>
	<g>
		<path fill="#786BFF" d="M391.837,123.68h-41.623V64.089c0-4.509-3.655-8.163-8.163-8.163L8.163,55.915
			c-2.165,0-4.241,0.86-5.772,2.391C0.86,59.837,0,61.913,0,64.078v247.354c0,18.005,14.645,32.652,32.647,32.652h334.296
			c18.227,0,33.057-14.829,33.057-33.057V131.843C400,127.334,396.345,123.68,391.837,123.68z M32.647,327.759L32.647,327.759
			c-8.999-0.001-16.32-7.325-16.32-16.327V72.242l317.561,0.01V311.03c0,6.102,1.669,11.819,4.563,16.73L32.647,327.759
			L32.647,327.759z M383.673,311.028c0,9.225-7.505,16.73-16.73,16.73s-16.73-7.505-16.73-16.73v-6.117h9.066
			c4.508,0,8.163-3.655,8.163-8.163c0-4.509-3.655-8.163-8.163-8.163h-9.066v-19.594h9.066c4.508,0,8.163-3.655,8.163-8.163
			c0-4.509-3.655-8.163-8.163-8.163h-9.066V233.07h9.066c4.508,0,8.163-3.655,8.163-8.163s-3.655-8.163-8.163-8.163h-9.066V197.15
			h9.066c4.508,0,8.163-3.655,8.163-8.163c0-4.509-3.655-8.163-8.163-8.163h-9.066v-26.596v-14.221h33.46V311.028z"/>
	</g>
</g>
</svg>
