<?xml version="1.0" encoding="iso-8859-1"?>
<!-- Generator: Adobe Illustrator 19.0.0, SVG Export Plug-In . SVG Version: 6.00 Build 0)  -->
<svg version="1.1" id="Layer_1" xmlns="http://www.w3.org/2000/svg" xmlns:xlink="http://www.w3.org/1999/xlink" x="0px" y="0px"
	 viewBox="0 0 512 512" style="enable-background:new 0 0 512 512;" xml:space="preserve">
<g>
	<g>
		<path d="M390.835,135.845H245.112c-5.77,0-10.449,4.678-10.449,10.449s4.679,10.449,10.449,10.449h145.724
			c5.77,0,10.449-4.678,10.449-10.449S396.605,135.845,390.835,135.845z" fill="#999" />
	</g>
</g>
<g>
	<g>
		<path d="M390.835,181.823H245.112c-5.77,0-10.449,4.678-10.449,10.449c0,5.771,4.679,10.449,10.449,10.449h145.724
			c5.77,0,10.449-4.678,10.449-10.449C401.284,186.501,396.605,181.823,390.835,181.823z" fill="#999"/>
	</g>
</g>
<g>
	<g>
		<path d="M390.835,227.802H245.112c-5.77,0-10.449,4.678-10.449,10.449s4.679,10.449,10.449,10.449h145.724
			c5.77,0,10.449-4.678,10.449-10.449S396.605,227.802,390.835,227.802z" fill="#999"/>
	</g>
</g>
<g>
	<g>
		<path d="M390.912,273.78H245.187c-5.77,0-10.449,4.678-10.449,10.449c0,5.771,4.679,10.449,10.449,10.449h145.725
			c5.771,0,10.449-4.678,10.449-10.449C401.36,278.458,396.682,273.78,390.912,273.78z" fill="#999"/>
	</g>
</g>
<g>
	<g>
		<path d="M196.411,219.622c-5.77,0-10.449,4.678-10.449,10.449v0.137c0,5.771,4.679,10.449,10.449,10.449
			c5.77,0,10.449-4.678,10.449-10.449v-0.137C206.86,224.3,202.181,219.622,196.411,219.622z" fill="#999"/>
	</g>
</g>
<g>
	<g>
		<path d="M196.41,205.672c5.77,0,10.449-4.678,10.449-10.449v-48.891c0-5.771-4.679-10.449-10.449-10.449H58.476
			c-5.77,0-10.449,4.678-10.449,10.449v137.86c0,5.771,4.679,10.449,10.449,10.449H196.41c5.77,0,10.449-4.678,10.449-10.449
			v-18.085c0-5.771-4.679-10.449-10.449-10.449s-10.449,4.678-10.449,10.449v7.636H68.925V156.781h117.036v38.442
			C185.961,200.994,190.64,205.672,196.41,205.672z" fill="#999"/>
	</g>
</g>
<g>
	<g>
		<path d="M390.912,323.411H58.476c-5.77,0-10.449,4.678-10.449,10.449c0,5.771,4.679,10.449,10.449,10.449h332.436
			c5.771,0,10.449-4.678,10.449-10.449C401.36,328.089,396.682,323.411,390.912,323.411z" fill="#999"/>
	</g>
</g>
<g>
	<g>
		<path d="M390.912,369.388H252.969c-5.77,0-10.449,4.678-10.449,10.449c0,5.771,4.679,10.449,10.449,10.449h137.942
			c5.771,0,10.449-4.678,10.449-10.449C401.36,374.066,396.682,369.388,390.912,369.388z" fill="#999"/>
	</g>
</g>
<g>
	<g>
		<path d="M218.98,369.388h-0.136c-5.77,0-10.449,4.678-10.449,10.449c0,5.771,4.679,10.449,10.449,10.449h0.136
			c5.771,0,10.449-4.678,10.449-10.449C229.429,374.066,224.75,369.388,218.98,369.388z" fill="#999"/>
	</g>
</g>
<g>
	<g>
		<path d="M185.463,369.389H58.476c-5.77,0-10.449,4.678-10.449,10.449c0,5.771,4.679,10.449,10.449,10.449h126.987
			c5.771,0,10.449-4.678,10.449-10.449C195.911,374.067,191.232,369.389,185.463,369.389z" fill="#999"/>
	</g>
</g>
<g>
	<g>
		<path d="M501.551,158.31h-53.278V82.034c0-5.771-4.678-10.449-10.449-10.449L10.449,71.571c-2.771,0-5.428,1.101-7.388,3.06
			C1.101,76.591,0,79.249,0,82.02v316.613c0,23.046,18.745,41.795,41.788,41.795h427.899c23.331,0,42.313-18.981,42.313-42.313
			V168.759C512,162.988,507.321,158.31,501.551,158.31z M41.788,419.532v-0.001c-11.519,0-20.89-9.375-20.89-20.898V92.47
			l406.478,0.013v305.635c0,7.81,2.136,15.128,5.841,21.415H41.788z M491.102,398.116c0,11.808-9.607,21.415-21.415,21.415
			c-11.808,0-21.414-9.607-21.414-21.415v-7.83h11.604c5.77,0,10.449-4.678,10.449-10.449c0-5.771-4.679-10.449-10.449-10.449
			h-11.604v-25.08h11.604c5.77,0,10.449-4.678,10.449-10.449c0-5.771-4.679-10.449-10.449-10.449h-11.604v-25.08h11.604
			c5.77,0,10.449-4.678,10.449-10.449c0-5.771-4.679-10.449-10.449-10.449h-11.604v-25.08h11.604c5.77,0,10.449-4.678,10.449-10.449
			s-4.679-10.449-10.449-10.449h-11.604v-34.043v-18.203h42.829V398.116z" fill="#999"/>
	</g>
</g>
<g>
</g>
<g>
</g>
<g>
</g>
<g>
</g>
<g>
</g>
<g>
</g>
<g>
</g>
<g>
</g>
<g>
</g>
<g>
</g>
<g>
</g>
<g>
</g>
<g>
</g>
<g>
</g>
<g>
</g>
</svg>
